<?xml version="1.0" encoding="utf-8"?>
<!-- Generator: Adobe Illustrator 28.2.0, SVG Export Plug-In . SVG Version: 6.00 Build 0)  -->
<svg version="1.1" id="Layer_1" xmlns="http://www.w3.org/2000/svg" xmlns:xlink="http://www.w3.org/1999/xlink" x="0px" y="0px"
	 viewBox="0 0 419.3 457.9" style="enable-background:new 0 0 419.3 457.9;" xml:space="preserve">
<style type="text/css">
	.st0{fill:#E1EDFF;}
</style>
<g id="XMLID_00000181067800637203826790000010931638792531546283_">
	<g>
		<path class="st0" d="M215.3,260.8c0.6,0,1.1,0.1,2.8,0.2c-8.6,8.6-16.4,16.4-24.2,24.2c-23.5,23.5-47,47.1-70.7,70.5
			c-2.6,2.6-6.3,4.6-9.8,5.6c-10,2.9-20.1,5.2-30.2,7.6c-6.1,1.4-11.2,4.4-15.6,8.8c-5.3,5.4-10.7,10.8-16.2,16.1
			c-4.3,4.3-9.4,4.6-12.7,1.1c-3.3-3.6-2.9-7.9,1.5-12.3c5.2-5.3,10.5-10.6,15.9-15.8c4.7-4.6,7.7-10,9.3-16.4
			c2.5-10.2,4.9-20.5,7.7-30.7c0.8-2.9,2.3-5.9,4.4-8c16-16.3,32.2-32.4,48.5-48.5c1.3-1.3,3.4-2.4,5.1-2.4
			C159.1,260.7,187.2,260.8,215.3,260.8z"/>
		<path d="M376.2,47.1c24.8,17.8,26.8,51.2,4.8,73.5c-18.8,19-37.8,37.9-56.8,56.8c-1.2,1.2-2.8,2-4.6,3.2
			c8,7.5,14.2,14.6,13.2,25.2c-0.6,6.1-3.1,11.4-7.6,15.5c-10.8,9.8-22.2,8.1-38.7-5.9c-1,0.9-2,1.7-3,2.7
			c-11,11-17.8,17.5-35.6,35.7c-1.2,1.2-3.2,3.3-5.7,5.8c-0.9,0.8-2.8,2.7-5.1,5c-13.3,13.1-75.7,75.6-101.2,101.3
			c-5.7,5.7-12.1,9.5-19.9,11.3c-9.4,2.1-18.8,4.3-28,7c-3.4,1-6.8,3-9.5,5.3c-6.5,5.8-12.2,12.5-18.8,18.1
			c-13.2,11.3-32.2,6.1-37.9-10.2c-2.7-7.7-1.8-15.3,3.5-21.6c6.1-7.1,13-13.3,19.3-20.3c2.3-2.5,4.2-5.8,5.2-9
			c2.8-9.5,5.1-19.2,7.3-28.9c1.7-7.3,5.1-13.4,10.5-18.8c49.1-49,98.1-98.1,147.2-147.1c1.3-1.3,2.9-2.3,4.7-3.7
			c-2.8-3.1-5.1-5.4-7.2-7.8c-8.1-9.6-7.6-23.4,1.1-32.2c8.7-8.8,22.5-9.4,32.2-1.5c2.5,2.1,4.8,4.4,7.3,6.8
			c1.4-1.3,2.6-2.4,3.8-3.6c16.7-16.7,33.7-33.2,50.1-50.3c10.1-10.6,21.1-19.2,35.9-21.9c4,0,8.1,0,12.1,0
			C361.9,40.8,370,42.6,376.2,47.1z M374,104.4c10.2-13.2,7.6-33.2-5.6-43.4c-13.5-10.5-31.2-9.1-44,3.6
			c-19.4,19.3-38.7,38.7-58.1,58.1c-0.7,0.7-1.4,1.6-1.6,1.8c15,15,29.8,29.8,44.8,44.8c0.6-0.5,1.5-1.3,2.4-2.2
			c19.1-19.1,38.3-38.3,57.4-57.4C371,108,372.6,106.3,374,104.4z M314.7,209.2c3.2-3.3,3-8-1-12c-25.6-25.7-51.2-51.3-76.9-76.8
			c-1.7-1.7-4-2.6-7.1-4.5c-2.4,2.1-5.2,3.6-6.6,6c-2.2,3.5-0.3,6.9,2.4,9.6c25.6,25.6,51.2,51.2,76.8,76.8
			C306.5,212.5,311.4,212.7,314.7,209.2z M271.3,207.8c1.3-1.3,2.5-2.6,3.3-3.5c-15.2-15.2-30-30-44.1-44.2
			c-28,28-56.3,56.3-84.7,84.6c0.5,0,1.4,0.1,2.2,0.1c27.7,0,55.4,0.1,83-0.1c2,0,4.4-1.3,5.9-2.8
			C248.5,230.7,259.9,219.2,271.3,207.8z M218.1,261c-1.6-0.1-2.2-0.2-2.8-0.2c-28.1,0-56.3,0-84.4,0.1c-1.7,0-3.8,1.2-5.1,2.4
			c-16.2,16.1-32.5,32.2-48.5,48.5c-2.1,2.1-3.6,5.1-4.4,8c-2.8,10.2-5.2,20.5-7.7,30.7c-1.5,6.4-4.5,11.8-9.3,16.4
			c-5.4,5.2-10.6,10.5-15.9,15.8c-4.4,4.4-4.8,8.8-1.5,12.3c3.3,3.5,8.4,3.2,12.7-1.1c5.4-5.3,10.8-10.7,16.2-16.1
			c4.4-4.4,9.5-7.4,15.6-8.8c10.1-2.4,20.3-4.7,30.2-7.6c3.5-1,7.2-3,9.8-5.6c23.7-23.4,47.1-47,70.7-70.5
			C201.7,277.4,209.5,269.6,218.1,261z"/>
	</g>
	<g>
	</g>
</g>
</svg>
