<?xml version="1.0" encoding="utf-8"?>
<!-- Generator: Adobe Illustrator 28.2.0, SVG Export Plug-In . SVG Version: 6.00 Build 0)  -->
<svg version="1.1" id="Layer_1" xmlns="http://www.w3.org/2000/svg" xmlns:xlink="http://www.w3.org/1999/xlink" x="0px" y="0px"
	 viewBox="0 0 5989.6 3873" style="enable-background:new 0 0 5989.6 3873;" xml:space="preserve">
<style type="text/css">
	.st0{fill:#000002;}
	.st1{fill:#E1EDFF;}
	.st2{fill:none;stroke:#000000;stroke-width:1.1489;stroke-miterlimit:6.6977;}
	.st3{fill:none;stroke:#000000;stroke-width:1.232;stroke-miterlimit:6.6977;}
	.st4{fill:none;stroke:#000000;stroke-width:0.3542;stroke-miterlimit:6.6977;}
	.st5{fill:none;stroke:#000000;stroke-width:0.8372;stroke-miterlimit:8.6668;}
	.st6{fill:#FFFFFF;}
	.st7{fill-rule:evenodd;clip-rule:evenodd;fill:#000002;}
	.st8{fill:none;}
	.st9{opacity:0.81;fill:#E1EDFF;enable-background:new    ;}
	.st10{fill:none;stroke:#000000;stroke-width:0.2737;stroke-miterlimit:5.176;}
	.st11{font-family:'MyriadPro-Regular';}
	.st12{font-size:100px;}
	.st13{font-size:98px;}
</style>
<g id="Layer_2_00000117635779799450188230000008253336714502461824_">
	<g transform="matrix(1.294 0 0 1.294 -13.938 -262.76)">
		<g>
			<g transform="translate(-7.7281 2.329e-8)">
				<g>
					<g>
						<g>
							<path class="st0" d="M2987.8,1252.1c-5.1,0-8.2-2.8-11.4-5.9c-1.2-1.1-2.5-2.3-4.2-3.7c-6.5-5.4-8.6-19.2-12.1-51.8
								c-1.4-12.5-3.6-32.7-6-38.8c-9.1-1.9-17.3-3.9-24.4-5.8c-4.9-1.4-9.3-2.8-13.2-4.1h-1.9l-2.3-2.3c-2.8-2.8-5.4-5.3-7.6-7.2
								l-3.5,3.1l-5.3-4l-0.2-0.2c-4.5-3.8-6.7-8.1-6.7-12.8s2.3-9,6.7-12.8c3.3-2.8,7.8-5.4,13.8-7.9c5.4-2.3,12.2-4.6,20.1-6.8
								c7.6-2.1,16.6-4.2,26.7-6.3c10-2,21.1-4.1,33.1-6s25.2-3.8,39.2-5.6c13.9-1.8,29-3.5,45-5.2s32.9-3.3,50.4-4.8
								c17.6-1.5,36.3-3,55.4-4.4c19.5-1.4,39.7-2.7,60-3.9c20.8-1.2,42.4-2.3,64.3-3.4c21.4-1,44.3-2,68.1-2.8
								c23.4-0.9,47.5-1.6,71.6-2.3c24.6-0.7,49.7-1.2,74.7-1.7c25.2-0.4,51.2-0.8,77.4-1c26.1-0.2,52.9-0.3,79.7-0.3
								s53.6,0.1,79.7,0.3c26.2,0.2,52.2,0.6,77.4,1c25,0.4,50.1,1,74.7,1.7c24.1,0.7,48.2,1.4,71.6,2.3c23.8,0.9,46.7,1.8,68.1,2.8
								c21.9,1,43.5,2.2,64.3,3.4c20.4,1.2,40.6,2.5,60,3.9c19.1,1.4,37.8,2.8,55.4,4.4c17.4,1.5,34.4,3.1,50.4,4.8
								c16,1.7,31.1,3.4,45,5.2c14,1.8,27.2,3.7,39.2,5.6s23.1,3.9,33.1,6c10.1,2.1,19,4.2,26.7,6.3c7.9,2.2,14.7,4.5,20.1,6.8
								c6,2.5,10.5,5.1,13.8,7.9c4.5,3.8,6.7,8.1,6.7,12.8c0,4.2-1.9,8.2-5.5,11.7l-5.2,5l-3.9-3.5c-2.1,2-4.8,4.6-7.7,7.5l-1.2,1.2
								l-1.6,0.6c-4.5,1.7-9.7,3.4-15.6,5c-7.7,2.2-16.7,4.3-26.7,6.3c-10,2.1-21.2,4.1-33.1,5.9c-12,1.9-25.2,3.8-39.2,5.6
								c-13.9,1.8-29,3.5-45,5.2s-33,3.3-50.4,4.8c-17.7,1.5-36.3,3-55.4,4.4c-19.3,1.4-39.5,2.7-60,3.9c-21,1.2-42.6,2.4-64.3,3.4
								c-21.4,1-44.4,2-68.1,2.8c-23.4,0.9-47.5,1.6-71.6,2.3c-24.6,0.7-49.7,1.2-74.7,1.7c-26,0.5-52.1,0.8-77.4,1
								c-26.1,0.2-52.9,0.3-79.7,0.3s-53.6-0.1-79.7-0.3c-25.3-0.2-51.3-0.6-77.4-1c-25-0.4-50.1-1-74.7-1.7
								c-24.1-0.7-48.2-1.4-71.6-2.3c-23.8-0.9-46.7-1.8-68.1-2.8c-21.6-1-43.2-2.2-64.3-3.4c-20.5-1.2-40.7-2.5-60-3.9
								c-19.1-1.4-37.7-2.8-55.4-4.4c-17.3-1.5-34.1-3.1-50-4.8c-0.9,0.2-5.3,2-16.5,14.3c-8.2,8.9-17.2,20.1-25.9,30.9
								c-15.3,19.1-24.2,30-30.6,33.2C2995.1,1250.4,2991.6,1252.1,2987.8,1252.1z M2931.6,1118.6c1.6,0.8,4.1,1.9,7.7,3.2
								c4.7,1.6,10.7,3.2,17.8,4.8c2.1,0.5,3.6,0.8,4.9,1.1c3,0.7,4.5,1.1,11,2.1c10,1.6,11.7,14.9,14.8,47.5
								c1.1,11.5,2.8,29.4,5.1,37.7c6.2-6,17-20.4,24.6-30.5c22.9-30.6,33.3-43.1,43.3-43.1c0.4,0,0.8,0,1.1,0.1
								c7.7,0.8,12,1.1,17.4,1.4c3.9,0.3,8.4,0.6,14.9,1.1c14.9,1.2,31.3,2.5,48.5,3.7c17,1.2,35,2.3,53.4,3.3
								c18.4,1.1,37.9,2.1,57.9,3c20.4,0.9,41.3,1.8,62.1,2.6c21.4,0.8,43.6,1.5,65.8,2.2c23,0.7,46.3,1.3,69.2,1.7
								c23.1,0.5,47.3,0.9,72.2,1.3c24.4,0.3,49.5,0.6,74.8,0.8c25.6,0.2,51.5,0.3,77,0.3s51.4-0.1,77-0.3
								c25.2-0.2,50.4-0.4,74.8-0.8c24.8-0.3,49.1-0.8,72.2-1.3c22.9-0.5,46.2-1.1,69.2-1.7c22.2-0.7,44.4-1.4,65.8-2.2
								c20.8-0.8,41.7-1.7,62.1-2.6c20-0.9,39.5-1.9,57.9-3s36.4-2.2,53.4-3.3c17.3-1.2,33.6-2.4,48.5-3.7c15.2-1.3,29.8-2.6,43.2-4
								c13.5-1.4,26.2-2.8,37.6-4.3c11.5-1.5,22.1-3,31.5-4.5c9.3-1.5,17.7-3.1,24.9-4.7c7.1-1.6,13.1-3.2,17.8-4.8
								c3.7-1.2,6.1-2.3,7.7-3.2c-1.6-0.8-4.1-1.9-7.7-3.2c-4.7-1.6-10.7-3.2-17.8-4.8c-7.1-1.6-15.4-3.2-24.9-4.7
								c-9.3-1.5-19.9-3-31.5-4.5c-11.4-1.4-24-2.9-37.6-4.3c-13.5-1.4-28-2.7-43.2-4c-14.9-1.2-31.3-2.5-48.5-3.7
								c-17-1.2-35-2.3-53.4-3.3c-18.4-1.1-37.9-2.1-57.9-3c-20.4-0.9-41.3-1.8-62.1-2.6c-21.4-0.8-43.6-1.6-65.8-2.2
								c-22-0.6-45.3-1.2-69.2-1.7c-24.1-0.5-48.4-0.9-72.2-1.3c-24.4-0.3-49.6-0.6-74.8-0.8c-24.8-0.2-50.7-0.3-77-0.3
								s-52.2,0.1-77,0.3c-25.2,0.2-50.4,0.4-74.8,0.8c-23.8,0.3-48,0.8-72.2,1.3c-23.9,0.5-47.1,1.1-69.2,1.7
								c-22.2,0.7-44.4,1.4-65.8,2.2c-20.8,0.8-41.7,1.7-62.1,2.6c-20,0.9-39.5,1.9-57.9,3s-36.4,2.2-53.4,3.3
								c-17.3,1.2-33.6,2.4-48.5,3.7c-15.2,1.3-29.8,2.6-43.2,4c-13.5,1.4-26.1,2.8-37.6,4.3c-11.6,1.5-22.2,3-31.5,4.5
								c-9.5,1.6-17.9,3.1-24.9,4.7c-7.1,1.6-13.1,3.2-17.8,4.8C2935.6,1116.6,2933.2,1117.7,2931.6,1118.6z"/>
						</g>
						<g>
							<path d="M4428,1128.3c4.1-4.2,7.8-7.7,10.3-10l-2.6-17.2l16,14.3l10.1,9l-6.1,5.8c-0.3,0.3-0.7,0.6-1.1,1l-0.1,0.1
								c-3.3,2.8-7.8,5.4-13.8,7.9c-1.4,0.6-2.9,1.2-4.5,1.8L4428,1128.3z"/>
						</g>
						<g>
							<path class="st1" d="M2969.4,2252.7l-1.4-5.9c-0.2-1-0.4-2-0.4-3.1c0-13.3,17.7-22.4,61.2-31.3
								c35.5-7.3,86.3-13.9,150.9-19.5c132.4-11.6,308.4-17.9,495.5-17.9c187.2,0,363.1,6.4,495.5,17.9
								c64.6,5.6,115.3,12.2,150.9,19.5c43.5,9,61.2,18,61.2,31.3c0,1.1-0.1,2.1-0.4,3.1l-1.5,5.9H2969.4z"/>
						</g>
						<g>
							<path class="st1" d="M3675.2,2312.5c-184.7,0-359-6.2-490.9-17.5c-64.3-5.5-115.3-11.9-151.5-19.1
								c-53.7-10.6-62.9-20.7-64.8-29.2l-2.1-9.4h1412.3l4.6,4.6l-0.1,3.3l-0.1,3.3l-1,0.9c-3.4,7.9-15.8,17-64,26.5
								c-36.3,7.2-87.2,13.6-151.5,19.1C4034.2,2306.3,3859.9,2312.5,3675.2,2312.5z"/>
						</g>
						<g>
							<path class="st1" d="M3668.3,2872.6c-208.6,0-374.9-16.1-494.3-47.9c-87.4-23.3-148.5-54.5-181.5-92.7
								c-26.2-30.3-25.3-55.1-24.9-59.6v-435.1h14.1l1.3,5.8c0.3,0.5,2.9,3.7,15.2,8c10.2,3.6,24.7,7.2,42.9,10.6
								c36.6,6.9,87.3,13.1,150.7,18.4c130.7,10.9,302.3,16.9,483.4,16.9c181.1,0,352.8-6,483.4-16.9
								c63.4-5.3,114.1-11.5,150.7-18.4c18.2-3.4,32.7-7,42.9-10.6c13.3-4.7,15.2-8.1,15.2-8.1s0,0.1-0.1,0.3l15.3,1.7v427.4
								c0.4,4.5,1.3,28.6-24.4,58.4c-32.9,38.2-94.3,69.5-182.4,92.9c-120.6,32.1-289.1,48.6-500.8,48.9
								C3672.9,2872.6,3670.6,2872.6,3668.3,2872.6z"/>
						</g>
						<g>
							<path d="M3674.9,2909.7c-20.6,0-42.6-0.2-69.2-0.6c-24.1-0.4-45.3-0.9-64.9-1.6c-19-0.7-40.6-1.5-60.6-2.6
								c-17.3-1-35.8-2.2-56.6-3.9c-19.4-1.5-37.3-3.3-52.3-4.9c-14.9-1.5-32.3-3.4-48.7-5.5c-13.9-1.8-28.2-3.9-44.7-6.5
								c-13.7-2.2-27.1-4.5-41.1-7.1c-12.8-2.4-25.5-5.1-37.9-7.8c-10.6-2.4-21.6-5-34.6-8.5c-10.4-2.7-21.4-5.7-31.8-8.8
								c-10.8-3.3-19.8-6.1-28.5-9.1c-8.9-3.1-17.2-6.4-25.7-9.8c-9.7-3.9-16.8-6.9-23.1-9.8c-6.8-3.1-13.8-6.6-20.6-10.2
								c-6.3-3.3-12.2-6.6-18.1-10.2c-5.8-3.5-11.1-6.9-16-10.3c-5.4-3.7-10.4-7.6-14.2-10.6c-4.4-3.5-8.3-6.6-12-10.1
								c-3.5-3.2-6.8-6.5-10.2-10.1c-3.1-3.3-6.1-6.5-8.7-9.8c-2.6-3.2-4.6-6.2-6.9-9.6c-2.1-3.2-4.1-6.4-5.8-9.3
								c-1.6-2.9-3-5.8-4.1-8.3l-0.2-0.3c-0.3-0.6-0.5-1.1-0.8-1.6c-1-2.1-1.9-4.2-2.7-6.4c-0.9-2.6-1.7-5.1-2.4-7.4
								c-0.5-1.8-0.7-3.4-0.9-4.7c-0.1-0.6-0.2-1.1-0.3-1.7c-0.1-0.7-0.3-1.3-0.4-1.9c-0.3-1.2-0.6-2.5-0.8-3.9
								c-0.2-1.6-0.3-3.2-0.4-4.7c-0.1-1.3,0-2.5,0-3.4v-0.4c0-0.3,0-0.5,0-0.7c0-0.5,0-1.1,0-1.7c0-0.6,0.2-1.2,0.3-1.8V1200
								c-0.2-1.5-1-6.8-2.1-13.5c-1.5-9.3-3.6-17.2-5.4-20.6c-2.4-4.6-8.8-12.4-16.4-20.1c-6.7-6.8-12.9-12.2-13-12.2l-6.6-5.8
								l14.2-12.6l5.1,4.3c1.4,1.2,4.2,3.1,9.7,5.4c1.1,0.5,2.3,0.9,3.6,1.4h1.8l2.3,2.3l0.7,0.8c10.1,10.2,16.9,18.7,20.6,25.8
								c3.4,6.5,6.1,15.8,8,27.5c1.4,8.7,1.9,15.7,1.9,15.9v0.2v1487.8c0,0.3,0,0.6,0,0.9v0.2c0,0.4,0,0.8,0,1.2v0.4
								c0,0.5,0,1.1,0,1.6c0,0.6,0.1,1.4,0.2,2.3l0.1,0.7c0.1,1.1,0.3,2.4,0.6,4c0.1,0.6,0.2,1.1,0.3,1.8c0.2,1.1,0.4,2.2,0.6,3.1
								c0.3,1,0.8,2.3,1.2,3.6c0.2,0.6,0.5,1.3,0.7,2s0.5,1.3,0.7,2c0.5,1.5,1,2.8,1.6,4.2c0.8,1.8,2,3.8,3.2,5.9l0.5,0.9
								c1.2,2.2,2.8,4.6,4.7,7.6l1,1.4c1.5,2.3,3.1,4.6,4.8,6.8c1.6,2,3.5,4,5.5,6.1c0.7,0.7,1.4,1.4,2.1,2.2c0.7,0.7,1.3,1.4,2,2.2
								c2.1,2.3,4.2,4.6,6.6,6.8c3.2,2.9,6.8,5.8,10.8,9c4.3,3.4,8.4,6.5,12.6,9.4c4.6,3.2,9.6,6.6,14.8,9.8
								c4.7,2.9,10.1,5.9,17,9.5c5.4,2.8,11.6,5.8,19.5,9.5c7.5,3.5,15,6.7,22.1,9.6c8,3.2,16.3,6.3,24.6,9.2c8.5,3,17.8,6,27.6,8.9
								c10.9,3.3,20.9,6.1,30.5,8.6c10.3,2.7,20.9,5.1,33.8,8c13.5,3,25.6,5.5,37,7.7c13.6,2.6,27.3,4.9,40.7,7.1
								c12.8,2,28,4.4,43.9,6.4c13.6,1.8,28.8,3.5,47.9,5.5c17.1,1.8,35.6,3.2,51.9,4.5c21.4,1.7,39.1,2.9,55.9,3.9
								c18.8,1.1,39.1,2.2,59.9,2.9c19.2,0.7,40.2,1.2,64.3,1.6c15.8,0.2,33,0.3,55.8,0.3c4.4,0,8.7,0,13.2,0
								c26.3,0,48.8-0.2,69-0.6c20.1-0.4,41.2-1,64.6-1.9c21.5-0.8,41.1-1.8,59.9-2.9c21.1-1.3,39.4-2.5,55.9-3.9
								c17.8-1.5,35.3-3.1,51.9-4.8c15.4-1.6,31.7-3.4,47.6-5.5c15.2-2,30.1-4.2,44.3-6.4c14.7-2.4,28.4-4.7,40.7-7.1
								c12.2-2.3,24.4-4.9,37-7.7c11.8-2.6,23.2-5.6,33.8-8.3c9.8-2.6,19.7-5.4,30.5-8.6c9.5-2.9,18.8-5.9,27.6-8.9
								c8.2-2.9,16.3-5.9,24.6-9.2l1.1-0.5c7.4-3,14.5-5.8,21-8.8c7.5-3.4,14.2-6.9,19.2-9.5c5.4-2.8,10.4-5.9,15.3-8.8l1.6-1
								c5.6-3.4,10.5-6.5,14.8-9.4l0.1-0.1c4.5-3.1,8.7-6,12.5-9c3.9-3.1,7.6-6.4,10.8-9.3c3-2.8,6.3-5.7,9-8.6
								c2.5-2.6,4.8-5.2,7.2-8.3l1.1-1.3c1.9-2.3,3.7-4.5,5.1-6.6c1.8-2.6,3.4-5.2,4.7-7.5c1-1.8,1.8-3.6,2.7-5.4
								c0.2-0.5,0.4-1,0.7-1.4c0.9-1.9,1.9-4.2,2.6-6.2c0.5-1.3,0.9-2.7,1.2-4.1c0.1-0.5,0.3-1,0.4-1.5c0.2-0.7,0.4-1.5,0.6-2.1
								c0.3-0.9,0.5-1.8,0.7-2.4c0.3-1.3,0.5-2.7,0.6-4l0.1-0.7c0.1-0.9,0.2-1.7,0.2-2.2c0-0.2,0-0.5,0-0.7l-0.4-0.3V1198.8v-0.3
								c0-0.3,0.6-6.7,1.9-14.7c1.8-11.3,4.1-19.7,7.3-25.9c3.9-7.7,11.1-16.9,22-28.1c0.5-0.5,0.9-0.9,1.4-1.4l1.2-1.3l1.6-0.6
								c1.4-0.5,2.7-1,3.9-1.6c5.5-2.3,8.4-4.2,9.8-5.4c0.2-0.2,0.4-0.4,0.6-0.5l5.2-4.9l14.5,12.9l-6.5,5.8
								c-0.1,0.1-6.5,5.8-13.7,13.2c-8.1,8.3-15.3,17.3-17.8,22.3c-1.8,3.5-3.8,11.3-5,19c-0.6,4.1-1.1,8.5-1.4,12.3
								c0,0,0,1486.6,0,1486.7c0,0.5,0,0.9,0,1.3c0,0.2,0,0.4,0,0.7v0.7c0,0.8,0,1.9,0,3.1c-0.1,1.4-0.2,2.7-0.4,4.4l-0.1,0.8
								c-0.2,1.4-0.4,3.2-0.7,5c-0.4,2.1-1,4.1-1.6,6.4c-0.7,2.6-1.5,5.1-2.4,7.4c-0.2,0.5-0.4,0.9-0.5,1.4c-0.7,2-1.5,4.3-2.6,6.6
								c-1.2,2.7-2.8,5.5-4.3,8.1l-0.8,1.3c-1.5,2.6-3,5.2-5,8.1c-2.2,3.3-4.9,6.7-7.2,9.5l-0.6,0.7c-2.4,2.9-4.8,6-7.8,9.1
								c-2.4,2.5-5,4.8-7.5,7.1c-1,0.9-2,1.8-3,2.7c-3.3,3-7.5,6.8-12,10.4c-3.9,3.1-8.6,6.7-13.8,10.3c-5.3,3.7-10.5,7-16,10.3
								c-4.9,3-10.6,6.1-18.5,10.2c-6.2,3.2-12.7,6.2-19.5,9.4l-1.1,0.5c-1.6,0.7-3.2,1.5-4.8,2.2c-5.7,2.6-11.5,5.4-18,7.9
								c-7.9,3.1-16.2,6.1-25,9.1l-1,0.4c-9.4,3.3-19.3,6.3-28.5,9.1l-3.6,1.1c-8.9,2.7-18,5.5-27.8,8c-12.5,3.3-23.8,6-34.7,8.5
								c-11.6,2.6-24,5.1-37.9,7.8c-11.5,2.2-24.7,4.5-41.5,7.1c-14.7,2.4-29.3,4.5-44.7,6.5c-14,1.8-30.7,4-48.3,5.8
								c-15.9,1.7-33.6,3.3-52.7,4.9c-16.6,1.4-34.5,2.6-56.3,3.9c-18.4,1.1-38.2,2-60.6,2.9c-24.4,0.9-45.1,1.6-64.9,1.9
								C3722.9,2909.5,3699.4,2909.7,3674.9,2909.7z"/>
						</g>
						<g>
							<path d="M2915.1,1141.4c-2-0.7-3.9-1.5-5.6-2.2c-5.9-2.5-10.4-5.1-13.7-7.8l-6.8-5.8l15.6-13.9l5.1,4.4
								c0.3,0.2,6.4,5.5,13.4,12.6L2915.1,1141.4z"/>
						</g>
					</g>
					<g>
						<g>
							<path class="st2" d="M2987.8,1252.1c-5.1,0-8.2-2.8-11.4-5.9c-1.2-1.1-2.5-2.3-4.2-3.7c-6.5-5.4-8.6-19.2-12.1-51.8
								c-1.4-12.5-3.6-32.7-6-38.8c-9.1-1.9-17.3-3.9-24.4-5.8c-4.9-1.4-9.3-2.8-13.2-4.1l0,0l-1.3-0.5c-2-0.7-3.9-1.5-5.6-2.2
								c-5.9-2.5-10.3-5-13.5-7.7l-0.1-0.1l-0.2-0.2c-4.5-3.8-6.7-8.1-6.7-12.8s2.3-9,6.7-12.8c3.3-2.8,7.8-5.4,13.8-7.9
								c5.4-2.3,12.2-4.6,20.1-6.8c7.6-2.1,16.6-4.2,26.7-6.3c10-2,21.1-4.1,33.1-6s25.2-3.8,39.2-5.6c13.9-1.8,29-3.5,45-5.2
								s32.9-3.3,50.4-4.8c17.6-1.5,36.3-3,55.4-4.4c19.5-1.4,39.7-2.7,60-3.9c20.8-1.2,42.4-2.3,64.3-3.4c21.4-1,44.3-2,68.1-2.8
								c23.4-0.9,47.5-1.6,71.6-2.3c24.6-0.7,49.7-1.2,74.7-1.7c25.2-0.4,51.2-0.8,77.4-1c26.1-0.2,52.9-0.3,79.7-0.3
								s53.6,0.1,79.7,0.3c26.2,0.2,52.2,0.6,77.4,1c25,0.4,50.1,1,74.7,1.7c24.1,0.7,48.2,1.4,71.6,2.3c23.8,0.9,46.7,1.8,68.1,2.8
								c21.9,1,43.5,2.2,64.3,3.4c20.4,1.2,40.6,2.5,60,3.9c19.1,1.4,37.8,2.8,55.4,4.4c17.4,1.5,34.4,3.1,50.4,4.8
								c16,1.7,31.1,3.4,45,5.2c14,1.8,27.2,3.7,39.2,5.6s23.1,3.9,33.1,6c10.1,2.1,19,4.2,26.7,6.3c7.9,2.2,14.7,4.5,20.1,6.8
								c6,2.5,10.5,5.1,13.8,7.9c4.5,3.8,6.7,8.1,6.7,12.8c0,4.2-1.9,8.2-5.5,11.7l-0.1,0.1c-0.3,0.3-0.7,0.6-1.1,1l-0.1,0.1
								c-3.3,2.8-7.8,5.4-13.8,7.9c-1.4,0.6-2.9,1.2-4.5,1.8c-4.5,1.7-9.7,3.3-15.6,5c-7.7,2.2-16.7,4.3-26.7,6.3
								c-10,2.1-21.2,4.1-33.1,5.9c-12,1.9-25.2,3.8-39.2,5.6c-13.9,1.8-29,3.5-45,5.2s-33,3.3-50.4,4.8c-17.7,1.5-36.3,3-55.4,4.4
								c-19.3,1.4-39.5,2.7-60,3.9c-21,1.2-42.6,2.4-64.3,3.4c-21.4,1-44.4,2-68.1,2.8c-23.4,0.9-47.5,1.6-71.6,2.3
								c-24.6,0.7-49.7,1.2-74.7,1.7c-26,0.5-52.1,0.8-77.4,1c-26.1,0.2-52.9,0.3-79.7,0.3s-53.6-0.1-79.7-0.3
								c-25.3-0.2-51.3-0.6-77.4-1c-25-0.4-50.1-1-74.7-1.7c-24.1-0.7-48.2-1.4-71.6-2.3c-23.8-0.9-46.7-1.8-68.1-2.8
								c-21.6-1-43.2-2.2-64.3-3.4c-20.5-1.2-40.7-2.5-60-3.9c-19.1-1.4-37.7-2.8-55.4-4.4c-17.3-1.5-34.1-3.1-50-4.8
								c-0.9,0.2-5.3,2-16.5,14.3c-8.2,8.9-17.2,20.1-25.9,30.9c-15.3,19.1-24.2,30-30.6,33.2
								C2995.1,1250.4,2991.6,1252.1,2987.8,1252.1z"/>
						</g>
						<g>
							<path class="st3" d="M2990.9,1232.7c-0.4,0-0.9,0-1.3-0.1c-11.7-1.5-13.9-18.6-17.2-53.9c-1.1-11.5-2.7-28.3-4.7-34.2
								c-4.9-0.8-6.6-1.2-9.3-1.9c-1.2-0.3-2.6-0.6-4.7-1.1c-7.6-1.7-14.2-3.4-19.4-5.2c-5.8-1.9-10.1-3.9-13.3-6.1
								c-4.8-3.3-7.3-7.2-7.3-11.7c0-3.1,1.3-7.6,7.3-11.7c3.2-2.2,7.5-4.2,13.3-6.1c5.2-1.8,11.7-3.5,19.4-5.2
								c7.3-1.6,16-3.3,25.8-4.9c9.5-1.6,20.3-3.1,32-4.6c11.6-1.5,24.3-2.9,37.9-4.3c13.6-1.4,28.2-2.7,43.5-4
								c15-1.2,31.4-2.5,48.8-3.7c17.1-1.2,35.1-2.3,53.6-3.4s38-2.1,58.1-3c20.4-0.9,41.4-1.8,62.2-2.6c21.5-0.8,43.7-1.6,65.9-2.2
								c22.1-0.6,45.4-1.2,69.3-1.8c24.2-0.5,48.5-0.9,72.3-1.3c24.4-0.3,49.6-0.6,74.9-0.8c24.9-0.2,50.8-0.3,77.1-0.3
								s52.3,0.1,77.1,0.3c25.2,0.2,50.4,0.4,74.9,0.8c23.8,0.3,48.1,0.8,72.3,1.3c23.9,0.5,47.2,1.1,69.3,1.8
								c22.3,0.7,44.4,1.4,65.9,2.2c20.9,0.8,41.8,1.7,62.2,2.6c20.1,0.9,39.6,1.9,58.1,3s36.5,2.2,53.6,3.4
								c17.3,1.2,33.7,2.4,48.8,3.7c15.3,1.3,30,2.6,43.5,4c13.7,1.4,26.4,2.8,37.9,4.3c11.7,1.5,22.5,3,32,4.6
								c9.8,1.6,18.4,3.2,25.8,4.9c7.6,1.7,14.1,3.4,19.4,5.2c5.8,1.9,10.1,3.9,13.3,6.1c6,4.1,7.3,8.6,7.3,11.7
								c0,4.5-2.5,8.4-7.3,11.7c-3.2,2.2-7.5,4.2-13.3,6.1c-5.2,1.8-11.7,3.5-19.4,5.2c-7.5,1.7-16.2,3.3-25.8,4.9
								c-9.5,1.6-20.3,3.1-32,4.6c-11.5,1.5-24.3,2.9-37.9,4.3s-28.2,2.7-43.5,4c-15,1.2-31.4,2.5-48.8,3.7
								c-17.1,1.2-35.1,2.3-53.6,3.4s-38,2.1-58.1,3c-20.4,0.9-41.4,1.8-62.2,2.6c-21.5,0.8-43.6,1.6-65.9,2.2
								c-23,0.7-46.4,1.3-69.3,1.8c-23.1,0.5-47.4,0.9-72.3,1.3c-24.4,0.3-49.6,0.6-74.9,0.8c-25.6,0.2-51.6,0.3-77.1,0.3
								s-51.5-0.1-77.1-0.3c-25.3-0.2-50.5-0.4-74.9-0.8c-24.9-0.3-49.2-0.8-72.3-1.3c-22.9-0.5-46.3-1.1-69.3-1.8
								c-22.3-0.7-44.5-1.4-65.9-2.2c-20.9-0.8-41.8-1.7-62.2-2.6c-20.1-0.9-39.6-1.9-58.1-3s-36.5-2.2-53.6-3.4
								c-17.3-1.2-33.8-2.4-48.8-3.7c-6.4-0.5-10.8-0.8-14.6-1.1c-5.2-0.3-9.6-0.7-17.1-1.4c-1.1,0.6-4.4,2.9-11.8,11.6
								c-6,7.1-12.9,16.3-19.6,25.2C3008.6,1222,2999.7,1232.7,2990.9,1232.7L2990.9,1232.7z"/>
						</g>
						<g>
							<path class="st4" d="M3675.2,2312.5c-184.7,0-359-6.2-490.9-17.5c-64.3-5.5-115.3-11.9-151.5-19.1
								c-53.6-10.6-62.9-20.7-64.8-29.1c-0.2-1-0.4-2-0.4-3c0-13.3,17.7-22.4,61.2-31.3c35.5-7.3,86.3-13.9,150.9-19.5
								c132.4-11.6,308.4-17.9,495.5-17.9c187.2,0,363.1,6.4,495.5,17.9c64.6,5.6,115.3,12.2,150.9,19.5c41.3,8.5,59.3,17.1,61,29.4
								l0.1,0.1v0.4c0,0.5,0.1,1,0.1,1.5c0,0.7,0,1.4-0.2,2l-0.1,2.7l-1,0.9c-3.4,7.9-15.8,17-64,26.5
								c-36.3,7.2-87.2,13.6-151.5,19.1C4034.2,2306.3,3859.9,2312.5,3675.2,2312.5z"/>
						</g>
						<g>
							<path class="st5" d="M3916.2,1319.8c-13.6,0-25.2-0.6-33-1.7l2.3-15.3c14.5,2.2,45.1,2.1,76.2-0.1c33.9-2.4,61-6.8,72.6-11.7
								l6,14.2C4018.2,1314.5,3958.1,1319.8,3916.2,1319.8z"/>
						</g>
						<g>
							<path class="st5" d="M3916.2,1486.2c-13.6,0-25.2-0.6-33-1.7l2.3-15.3c14.5,2.2,45.1,2.1,76.2-0.1c33.9-2.4,61-6.8,72.6-11.7
								l6,14.2C4018.2,1480.9,3958.1,1486.2,3916.2,1486.2z"/>
						</g>
						<g>
							<path class="st5" d="M3916.2,1652.6c-13.6,0-25.2-0.6-33-1.7l2.3-15.3c14.5,2.2,45.1,2.1,76.2-0.1c33.9-2.4,61-6.8,72.6-11.7
								l6,14.2C4018.2,1647.3,3958.1,1652.6,3916.2,1652.6z"/>
						</g>
						<g>
							<path class="st5" d="M3916.2,1819c-13.6,0-25.2-0.6-33-1.7l2.3-15.3c14.5,2.2,45.1,2.1,76.2-0.1c33.9-2.4,61-6.8,72.6-11.7
								l6,14.2C4018.2,1813.7,3958.1,1819,3916.2,1819z"/>
						</g>
						<g>
							<path class="st5" d="M3916.2,1985.4c-13.6,0-25.2-0.6-33-1.7l2.3-15.3c14.5,2.2,45.1,2.1,76.2-0.1c33.9-2.4,61-6.8,72.6-11.7
								l6,14.2C4018.2,1980.2,3958.1,1985.4,3916.2,1985.4z"/>
						</g>
						<g>
							<path class="st5" d="M3916.2,2151.8c-13.6,0-25.3-0.6-33.1-1.7l2.3-15.3c14.5,2.1,45.1,2.1,76.2-0.1
								c44.5-3.2,54.8-4.2,72.6-11.7l6,14.2C4018.3,2146.5,3958.1,2151.8,3916.2,2151.8z"/>
						</g>
						<g>
							<path class="st5" d="M3916.2,2318.3c-13.6,0-25.3-0.6-33.1-1.7l2.3-15.3c14.5,2.1,45.1,2.1,76.2-0.1
								c33.9-2.4,61-6.8,72.6-11.7l6,14.2C4018.3,2313,3958.1,2318.3,3916.2,2318.3z"/>
						</g>
						<g>
							<path class="st5" d="M3916.2,2484.7c-13.6,0-25.3-0.6-33.1-1.7l2.3-15.3c14.5,2.1,45.1,2.1,76.2-0.1
								c33.9-2.4,61-6.8,72.6-11.7l6,14.2C4018.3,2479.4,3958.1,2484.7,3916.2,2484.7z"/>
						</g>
						<g>
							<path class="st5" d="M3916.2,2651.1c-13.6,0-25.2-0.6-33-1.7l2.3-15.3c14.5,2.1,45.1,2.1,76.2-0.1c33.9-2.4,61-6.8,72.6-11.7
								l6,14.2C4018.2,2645.8,3958.1,2651.1,3916.2,2651.1z"/>
						</g>
					</g>
				</g>
			</g>
		</g>
	</g>
	<polygon class="st6" points="4578.5,1084.8 4578.5,1140.3 4930.7,1146.2 4930.7,1062.8 	"/>
</g>
<g id="Layer_1_00000115495970366583797840000014707471010102590600_">
	<path class="st7" d="M4401.8,169.7c163.7,0,296.8,133.1,296.8,296.8v293h-13.7c-92,0-166.8,74.8-166.8,166.8v1023.9
		c0,5.2,0.9,10.3,2.5,14.9l72.8,235.1v1033.7c0,82.9,67.4,150.3,150.3,150.3s150.3-67.4,150.3-150.3V2200.4l73.4-236.8
		c1.6-5.1,2.2-10.4,1.9-15.7V926.3c0-92-74.8-166.8-166.8-166.8H4789v-293c0-213.5-173.6-387.2-387.1-387.2
		c0,0,11.7,0.2-1606.9,149.7h-518.5c-198.2,0-362,149.7-384.5,342h-140.8c-88.9,0-161.2,72.3-161.2,161.1v70.8H627.4
		c-72,0-130.6,58.6-130.6,130.6v2469.9c0,72,58.6,130.6,130.6,130.6h1606.3c72,0,130.6-58.6,130.6-130.5v-2470
		c0-56.1-35.6-104.1-85.4-122.5v-78.9c0-88.8-72.3-161.1-161.1-161.1h-134.7c21.8-142.3,145.1-251.6,293.4-251.6H2795 M1680.3,802.9
		v-70.8c0-39,31.7-70.8,70.8-70.8h183h0.3h0.3h183c39,0,70.8,31.7,70.8,70.8v70.8H1680.3L1680.3,802.9z M627.4,893.3
		c-22.2,0-40.2,18-40.2,40.2v2469.9c0,22.1,18,40.2,40.2,40.2h1606.3c22.2,0,40.2-18.1,40.2-40.2V933.5c0-22-17.8-39.9-39.7-40.2
		h-0.6h-598.5h-0.7H627.4L627.4,893.3z M2001.6,1943.2c58.3,0,105.7-47.4,105.7-105.7v-671.1c0-58.3-47.4-105.7-105.7-105.7H859.5
		c-58.3,0-105.7,47.4-105.7,105.7v671.1c0,58.3,47.4,105.7,105.7,105.7H2001.6L2001.6,1943.2z M859.5,1151.1
		c-8.3,0-15.3,7-15.3,15.3v671.1c0,8.3,7,15.3,15.3,15.3h1142.2c8.3,0,15.4-7,15.4-15.3v-671.1c0-8.3-7-15.3-15.3-15.3H859.5
		L859.5,1151.1z M2062.2,2278.7H798.9c-25,0-45.2-20.2-45.2-45.2c0-24.9,20.2-45.2,45.2-45.2h1263.2c24.9,0,45.2,20.2,45.2,45.2
		S2087.1,2278.7,2062.2,2278.7L2062.2,2278.7z M2062.2,2607H798.9c-25,0-45.2-20.2-45.2-45.2c0-24.9,20.2-45.2,45.2-45.2h1263.2
		c24.9,0,45.2,20.2,45.2,45.2S2087.1,2607,2062.2,2607L2062.2,2607z M4882.8,1887.9h-270.6V909.2c0-42.1,34.3-76.4,76.4-76.4h117.7
		c42.2,0,76.5,34.3,76.5,76.4V1887.9L4882.8,1887.9z M4819.3,2131.1h-143.7l-47.3-152.9h238.3L4819.3,2131.1L4819.3,2131.1z
		 M4687.5,2221.5h119.9v995.2c0,33.1-26.9,60-60,60l0,0c-33.1,0-60-26.9-60-60L4687.5,2221.5L4687.5,2221.5z M4747.5,1793.8
		c-25,0-45.2-20.2-45.2-45.2V972c0-24.9,20.2-45.2,45.2-45.2s45.2,20.2,45.2,45.2v776.6C4792.6,1773.6,4772.4,1793.8,4747.5,1793.8
		L4747.5,1793.8z"/>
</g>
<polygon class="st7" points="4593.5,2552.5 4593.5,2640.6 4687.5,2640.6 4687.5,2540.2 "/>
<polygon class="st7" points="4807.4,2551.6 4807.4,2640.6 4894.1,2640.6 4894.1,2533.3 "/>
<line class="st8" x1="4882.8" y1="1087.8" x2="4882.8" y2="1128.2"/>
<polygon class="st9" points="4574.6,2627.8 4928.6,2627.8 4928.6,3419.8 4566.3,3419.8 "/>
<path class="st10" d="M4573.5,2728.4l355.1-0.7L4573.5,2728.4z"/>
<rect x="5220.6" y="2689.4" class="st8" width="316.4" height="155.1"/>
<text transform="matrix(1 0 0 1 5220.5776 2760.3931)" class="st11 st12">10 ml</text>
<rect x="5220.6" y="2039.8" class="st8" width="353.1" height="174.6"/>
<text transform="matrix(1 0 0 1 5220.5767 2109.4194)" class="st11 st13">20 ml</text>
</svg>
